<svg width="17" height="17" viewBox="0 0 17 17" fill="none" xmlns="http://www.w3.org/2000/svg">
<path d="M16.3694 5.86658C16.1354 5.59352 15.7843 5.41799 15.4332 5.41799H14.4581L10.6938 0.776099C10.4598 0.483543 10.0502 0.425032 9.73816 0.639573C9.4456 0.873618 9.38709 1.2832 9.60163 1.59526C9.60163 1.61476 9.62113 1.61476 9.62113 1.63426L12.7222 5.41799H4.37463L7.45622 1.63426C7.70977 1.36121 7.69026 0.932129 7.41721 0.678581C7.14416 0.425032 6.71508 0.444536 6.46153 0.717588L6.40302 0.776099L2.6388 5.43749H1.85865C1.19552 5.43749 0.649414 5.9836 0.649414 6.64672C0.649414 6.72474 0.649414 6.80275 0.668918 6.88077L2.22922 14.7408C2.38525 15.5599 3.10688 16.145 3.94555 16.145H13.3463C14.185 16.145 14.9066 15.5599 15.0627 14.7408L16.623 6.88077C16.701 6.5297 16.6035 6.15913 16.3694 5.86658ZM6.61756 12.2443C6.61756 12.6149 6.3055 12.9269 5.93493 12.9269C5.56436 12.9269 5.2523 12.6149 5.2523 12.2443V9.47477C5.2523 9.1042 5.56436 8.79214 5.93493 8.79214C6.3055 8.79214 6.61756 9.1042 6.61756 9.47477V12.2443ZM9.32858 12.2443C9.32858 12.6149 9.01652 12.9269 8.64595 12.9269C8.27538 12.9269 7.96332 12.6149 7.96332 12.2443V9.47477C7.96332 9.1042 8.27538 8.79214 8.64595 8.79214C9.01652 8.79214 9.32858 9.1042 9.32858 9.47477V12.2443ZM12.0201 12.2443C12.0201 12.6149 11.708 12.9269 11.3375 12.9269C10.9669 12.9269 10.6548 12.6149 10.6548 12.2443V9.47477C10.6548 9.1042 10.9669 8.79214 11.3375 8.79214C11.708 8.79214 12.0201 9.1042 12.0201 9.47477V12.2443Z" fill="white"/>
<path d="M16.3694 5.86658C16.1354 5.59352 15.7843 5.41799 15.4332 5.41799H14.4581L10.6938 0.776099C10.4598 0.483543 10.0502 0.425032 9.73816 0.639573C9.4456 0.873618 9.38709 1.2832 9.60163 1.59526C9.60163 1.61476 9.62113 1.61476 9.62113 1.63426L12.7222 5.41799H4.37463L7.45622 1.63426C7.70977 1.36121 7.69026 0.932129 7.41721 0.678581C7.14416 0.425032 6.71508 0.444536 6.46153 0.717588L6.40302 0.776099L2.6388 5.43749H1.85865C1.19552 5.43749 0.649414 5.9836 0.649414 6.64672C0.649414 6.72474 0.649414 6.80275 0.668918 6.88077L2.22922 14.7408C2.38525 15.5599 3.10688 16.145 3.94555 16.145H13.3463C14.185 16.145 14.9066 15.5599 15.0627 14.7408L16.623 6.88077C16.701 6.5297 16.6035 6.15913 16.3694 5.86658ZM6.61756 12.2443C6.61756 12.6149 6.3055 12.9269 5.93493 12.9269C5.56436 12.9269 5.2523 12.6149 5.2523 12.2443V9.47477C5.2523 9.1042 5.56436 8.79214 5.93493 8.79214C6.3055 8.79214 6.61756 9.1042 6.61756 9.47477V12.2443ZM9.32858 12.2443C9.32858 12.6149 9.01652 12.9269 8.64595 12.9269C8.27538 12.9269 7.96332 12.6149 7.96332 12.2443V9.47477C7.96332 9.1042 8.27538 8.79214 8.64595 8.79214C9.01652 8.79214 9.32858 9.1042 9.32858 9.47477V12.2443ZM12.0201 12.2443C12.0201 12.6149 11.708 12.9269 11.3375 12.9269C10.9669 12.9269 10.6548 12.6149 10.6548 12.2443V9.47477C10.6548 9.1042 10.9669 8.79214 11.3375 8.79214C11.708 8.79214 12.0201 9.1042 12.0201 9.47477V12.2443Z" fill="white"/>
</svg>
